# xmcd
#
# Track frame offsets: 
#        150
#        15499
#        37040
#        52352
#        66793
#        83683
#        101686
#        116699
#        140846
#        157388
#        175985
#        194198
#        208847
#
# Disc length: 3056 seconds
#
# Revision: 0
# Processed by: cddbd v1.5.2PL0 Copyright (c) Steve Scherf et al.
# Submitted via: ExactAudioCopyFreeDBPlugin 1.0
#
DISCID=ce0bee0d
DTITLE=Flash Terry - Mr. Bluesman
DYEAR=1900
DGENRE=Blues
TTITLE0=Open your heart
TTITLE1=Magnolia
TTITLE2=Milk Cow Blues
TTITLE3=Enough Troubles of My Own
TTITLE4=C. C. Rider
TTITLE5=More and More
TTITLE6=Rock and Roll
TTITLE7=Call Me Anything
TTITLE8=Don't Walk Away
TTITLE9=Three Steps From the Blues
TTITLE10=Seems That I Love You
TTITLE11=I'm Your Man
TTITLE12=Mr. Bluesman
EXTD=
EXTT0=
EXTT1=
EXTT2=
EXTT3=
EXTT4=
EXTT5=
EXTT6=
EXTT7=
EXTT8=
EXTT9=
EXTT10=
EXTT11=
EXTT12=
PLAYORDER=
